<svg xmlns="http://www.w3.org/2000/svg" xmlns:xlink="http://www.w3.org/1999/xlink" viewBox="30 70 400 130" height="130" width="400" xmlns:v="https://vecta.io/nano"><defs><clipPath id="A"><path d="M0 526h340.157V0H0z"/></clipPath><path id="B" d="M203.91 459.194c-2.406 0-3.68-1.65-3.68-3.877s1.273-3.877 3.68-3.877 3.678 1.65 3.678 3.877-1.273 3.877-3.678 3.877m0 3.38c4.97 0 7.456-3.38 7.456-7.257s-2.485-7.257-7.456-7.257-7.456 3.38-7.456 7.257 2.485 7.257 7.456 7.257"/></defs><g transform="matrix(1.333333 0 0 -1.333333 0 701.33333)"><path d="M226.9 388.062h-77.8v-1.02h77.788zm10.597 2.438H149.12v-1.02h88.386zm-51.76 80.77h-54.688v-1.02h54.688z" fill="#e1373b"/><g fill="#2763a2"><path d="M301.133 411.38H39.767v25.512h261.366z"/><path d="M50.064 418.1h-13.72v6.023h13.72zm232.28-8.537h-56.83v6.023h56.83zm-94.207-7.66h-56.83v6.023h56.83zm-13.53-10.507h-56.83v6.023h56.83zm45.183-11.755h-8.223v19.572h8.223zm-116.12 67.013h-8.222v19.572h8.222z"/></g><path d="M102.585 409.058H60.55v3.526h42.034z" fill="#6dc4d8"/><path d="M242.86 443.346H98.04v24.416h144.82zm-24.183-62.62h-96.454v24.197h96.454z" fill="#2763a2"/><path d="M253.457 445.76h-32.514v-3.208h32.514zm-113.512-.942h-10.093v-2.595h10.093zm7.287-3.4H137.14v-2.596h10.093zm-29.457.805h-10.093v-2.596h10.093zm80.263-59.893h-17.762v-3.208h17.762zM124.6 451.553H76.343v-1.02h48.268zm7.3 2.447H83.642v-1.02H131.9zm6.443 2.45H90.075v-1.02h48.268zm-28.555-23.68H32.236v-4.68h77.552zm100.466-26.276H168.06v-3.14h42.194zm102.443 17.64h-62.882v-9.595h62.882z" fill="#e1373b"/><path d="M172.67 388.776h-62.88v-4.68h62.88z" fill="#6dc4d8"/><g clip-path="url(#A)"><g fill="#fff"><path d="M117.557 451.54c.855 0 1.57.24 1.57 1.312s-.716 1.313-1.57 1.313h-2.704v-2.625zm.04 5.806c2.823 0 5.308-1.014 5.308-4.494s-2.485-4.493-5.308-4.493h-6.422v13.917h10.557v-3.28h-6.88v-1.65zm15.353 1.848c-2.406 0-3.678-1.65-3.678-3.877s1.272-3.877 3.678-3.877 3.678 1.65 3.678 3.877-1.272 3.877-3.678 3.877m0 3.38c4.97 0 7.456-3.38 7.456-7.257s-2.485-7.257-7.456-7.257-7.456 3.38-7.456 7.257 2.485 7.257 7.456 7.257m22.97-.298V448.36h-3.678v10.637h-3.003c-.437-5.707-1.133-10.797-5.13-10.816-.517 0-1.094.08-1.7.278v3.2c.258-.08.577-.12.954-.08 2.247.24 2.207 6.482 2.525 10.697zm7.797-10.736h2.008c1.114 0 2.108.338 2.108 1.6s-.994 1.6-2.108 1.6h-2.008zm-3.678-3.18v13.917h3.678v-4.374h1.83c3.44-.02 6.064-1.113 6.064-4.77s-2.625-4.772-6.064-4.772zm14.796-.002v13.917h3.678V451.64h3.58v10.636h3.678V451.64h3.58v10.636h3.678V448.36z"/><use xlink:href="#B"/><path d="M224.333 463.966v2.505c-1.073-.656-2.147-.835-3.28-.835s-2.207.18-3.28.835v-2.505c.855-.577 1.8-.915 3.28-.915s2.426.338 3.28.915m-.695-15.607v5.686l.08 2.286-5.447-7.972h-3.48v13.917h3.678V456.6l-.08-2.307 5.447 7.993h3.48V448.36zM54.286 420.54h4.573v7.455h-2.883c-.2-2.724-.597-5.428-1.7-7.455m-5.468-6.064v6.064h1.6c1.8 3.18 2.187 7.058 2.187 10.736h9.94V420.54h1.8v-6.064h-3.182v2.882H52v-2.882zm23.258 8.05h3.58l-1.432 4.017c-.12.337-.238.675-.358 1.412a6.86 6.86 0 0 0-.358-1.412zm-5.667-5.17l5.468 13.918h3.976l5.468-13.918h-3.778l-.795 2.188h-5.766l-.795-2.188zm30.106 13.92v-13.918h-3.678v10.637h-3.002c-.438-5.706-1.133-10.796-5.13-10.816-.517 0-1.093.08-1.7.28v3.2a2.39 2.39 0 0 1 .955-.08c2.246.24 2.207 6.48 2.525 10.697zm7.798-10.736h2.008c1.114 0 2.108.338 2.108 1.6s-.994 1.6-2.108 1.6h-2.008zm-3.678-3.182v13.918h3.678V426.9h1.83c3.44-.02 6.064-1.113 6.064-4.77s-2.625-4.772-6.064-4.772zm27.322 13.918v-13.918h-3.678v5.3h-5.17v-5.3h-3.678v13.918h3.678v-5.33h5.17v5.33zm14.14 0v-3.182h-6.343v-2.127h5.746v-3.162h-5.746v-2.265h6.462v-3.182h-10.14v13.918zm9.686-2.884h-2.267v-2.564l2.267-.02c.975 0 1.53.497 1.53 1.292s-.556 1.292-1.53 1.292m.22-5.248h-2.505v-2.903h2.505c1.114 0 1.85.358 1.85 1.45s-.735 1.452-1.85 1.452m.12 8.132c3.042 0 4.87-1.114 4.87-3.52 0-1.53-.735-2.545-2.067-3.022 1.5-.438 2.624-1.5 2.624-3.44 0-3.16-3.022-3.936-5.666-3.936h-6.045v13.918zm15.57-3.08c-2.406 0-3.678-1.65-3.678-3.877s1.272-3.877 3.678-3.877 3.678 1.65 3.678 3.877-1.272 3.877-3.678 3.877m0 3.38c4.97 0 7.456-3.38 7.456-7.257s-2.486-7.257-7.456-7.257-7.456 3.38-7.456 7.257 2.485 7.257 7.456 7.257m17.74 0c1.4 0 2.823-.298 4.036-.875v-3.48c-.855.715-2.128 1.133-3.4 1.133-2.207 0-4.394-1.213-4.394-4.235 0-2.704 2.187-3.817 4.354-3.817 1.43 0 2.744.437 3.54 1.212v-3.58c-1.212-.576-2.584-.874-4.056-.874-3.817 0-7.614 2.087-7.614 7.058 0 5.25 3.777 7.456 7.535 7.456m18.135-.296v-3.28h-3.917V417.36h-3.678v10.637h-3.936v3.28zm9.428-3.082c-2.406 0-3.68-1.65-3.68-3.877s1.273-3.877 3.68-3.877 3.678 1.65 3.678 3.877-1.273 3.877-3.678 3.877m0 3.38c4.97 0 7.456-3.38 7.456-7.257s-2.485-7.257-7.456-7.257-7.456 3.38-7.456 7.257 2.485 7.257 7.456 7.257m18.554-14.216v4.732c-1.133-.338-2.227-.517-3.22-.517-3.02 0-5.07 1.55-5.07 4.8v4.892h3.678v-4.692c0-1.134 1.013-1.7 2.326-1.7.716 0 1.5.16 2.286.478v5.905h3.68v-13.918zm20.324 13.918v-13.918h-3.678v5.3h-5.17v-5.3h-3.677v13.918h3.677v-5.33h5.17v5.33zm16.586 0h3.68v-13.918h-3.68zm-8.788-10.736h2.008c1.114 0 2.108.337 2.108 1.6s-.994 1.6-2.108 1.6h-2.008zm-3.678-3.182v13.918h3.678V426.9h1.83c3.44-.02 6.065-1.113 6.065-4.772s-2.625-4.77-6.065-4.77zm29.81 15.607v2.505c-1.073-.655-2.147-.835-3.28-.835s-2.207.18-3.28.835v-2.505c.855-.576 1.8-.914 3.28-.914s2.426.338 3.28.914m-.695-15.607v5.686l.08 2.286-5.447-7.972h-3.48v13.918h3.678v-5.687l-.08-2.307 5.447 7.994h3.48v-13.918zm-149.94-31v13.918h3.678v-5.27h1.75l3.16 5.27h4.076l-4.374-6.78 4.573-7.138h-4.076l-3.38 5.368h-1.73v-5.368zm21.477 11.034h-2.267v-2.564l2.267-.02c.975 0 1.53.497 1.53 1.292s-.556 1.292-1.53 1.292m.22-5.248h-2.505v-2.903h2.505c1.113 0 1.85.358 1.85 1.45s-.736 1.452-1.85 1.452m.12 8.132c3.042 0 4.87-1.114 4.87-3.52 0-1.53-.735-2.545-2.067-3.022 1.5-.438 2.624-1.5 2.624-3.44 0-3.16-3.022-3.936-5.666-3.936h-6.045v13.918zm18.83.001v-3.182h-6.342v-2.127h5.746v-3.162h-5.746v-2.265h6.46v-3.182h-10.14v13.918zm10.443.298c1.4 0 2.823-.298 4.036-.875v-3.48c-.855.715-2.128 1.133-3.4 1.133-2.207 0-4.394-1.213-4.394-4.235 0-2.704 2.187-3.817 4.354-3.817 1.43 0 2.744.437 3.54 1.212v-3.58c-1.212-.576-2.584-.874-4.056-.874-3.817 0-7.615 2.087-7.615 7.058 0 5.25 3.778 7.456 7.536 7.456m18.135-.296v-3.28h-3.917V386.36h-3.678v10.637h-3.936v3.28z"/></g><path d="M210.483 466.317H172.43v2.89h38.054z" fill="#6dc4d8"/><path d="M246.094 462.418h-13.72v6.023h13.72z" fill="#2763a2"/><g fill="#6dc4d8"><path d="M267.23 434.817h-62.946v-1.778h62.946zm-122.7-30.897h-26.467v2h26.467z"/></g></g></g></svg>
